# xmcd CD database file
#
# Track frame offsets:
#	150
#	23460
#	53494
#	86024
#	110075
#	152831
#	177819
#	201193
#
# Disc length: 3080 seconds
#
# Revision: 0
# Processed by: cddbd v1.5.2PL0 Copyright (c) Steve Scherf et al.
# Submitted via: CDex 1.51
#
DISCID=5b0c0608
DTITLE=Robin Bibib Band - Switch on the Live
DYEAR=2012
DGENRE=Blues
TTITLE0=Anni Brown (Bibi)
TTITLE1=Long Grey Mare
TTITLE2=Fast Life Songs (Bibi)
TTITLE3=Down in the Valley
TTITLE4=Under Your Spell (Bibi)
TTITLE5=Waiting on You
TTITLE6=Cold Shot
TTITLE7=Language of Your Soul (Bibi)
EXTD=YEAR: 2012
EXTT0=
EXTT1=
EXTT2=
EXTT3=
EXTT4=
EXTT5=
EXTT6=
EXTT7=
PLAYORDER=
